<?xml version="1.0" encoding="iso-8859-1"?>
<!-- Generator: Adobe Illustrator 19.0.0, SVG Export Plug-In . SVG Version: 6.00 Build 0)  -->
<svg version="1.1" id="Capa_1" xmlns="http://www.w3.org/2000/svg" xmlns:xlink="http://www.w3.org/1999/xlink" x="0px" y="0px"
	 viewBox="0 0 512.001 512.001" style="enable-background:new 0 0 512.001 512.001;" xml:space="preserve">
<g>
	<g>
		<path d="M472.693,39.308c-52.41-52.41-138.656-52.408-191.066,0l-78.701,78.701c-15.231,15.231-26.048,33.226-32.471,52.382
			c-19.667,6.615-37.666,17.754-52.447,32.535l-78.701,78.701c-52.41,52.409-52.41,138.656,0,191.066
			c52.407,52.407,138.654,52.412,191.066,0l78.701-78.701c15.231-15.23,26.048-33.224,32.471-52.382
			c19.667-6.615,37.666-17.754,52.447-32.535l78.701-78.701C525.104,177.965,525.104,91.719,472.693,39.308z M176.546,271.767
			c6.432,13.498,15.219,26.146,26.38,37.308c10.876,10.876,23.535,19.792,37.306,26.383l-73.547,73.547
			c-17.302,17.302-46.187,17.302-63.489,0c-17.571-17.572-17.568-46.118,0-63.688L176.546,271.767z M287.846,372.765l-78.701,78.699
			c-40.738,40.736-107.935,40.67-148.607,0c-40.704-40.704-40.704-107.903,0-148.606l78.701-78.701
			c7.245-7.245,15.48-13.359,24.4-18.182c-0.638,11.482,0.177,23.028,2.447,34.339c-1.952,1.594-3.829,3.285-5.616,5.073
			l-78.5,78.701c-29.304,29.303-29.306,76.844,0,106.148c29.036,29.037,76.911,29.037,105.947,0l78.701-78.7
			c29.008-29.008,29.477-76.671,0-106.148c-11.768-11.768-15.636-28.48-11.63-43.511c12.197,5.244,23.391,12.812,32.86,22.281
			C328.815,265.129,328.815,331.793,287.846,372.765z M335.455,240.235c-6.432-13.498-15.219-26.146-26.38-37.308
			c-10.876-10.876-23.535-19.792-37.306-26.383l73.547-73.547c17.302-17.302,46.187-17.302,63.489,0
			c17.572,17.572,17.769,46.12,0.2,63.688L335.455,240.235z M451.464,209.145l-78.701,78.701c-7.245,7.245-15.48,13.359-24.4,18.182
			c0.638-11.482-0.177-23.028-2.447-34.339c1.951-1.594,3.829-3.285,5.616-5.073l78.701-78.701
			c29.037-29.036,29.037-77.111,0-106.148c-29.036-29.036-77.111-29.036-106.147,0l-78.701,78.701
			c-29.006,29.006-29.478,76.669,0,106.148c11.768,11.768,15.636,28.48,11.63,43.511c-12.197-5.244-23.391-12.812-32.86-22.281
			c-40.97-40.971-40.97-107.636,0-148.606l78.701-78.701c40.705-40.703,107.902-40.704,148.607,0
			C492.168,101.243,492.168,168.441,451.464,209.145z"/>
	</g>
</g>
<g>
	<g>
		<path d="M436.452,415.221l-21.23-21.229c-5.862-5.861-15.367-5.862-21.229,0c-5.862,5.863-5.862,15.367,0,21.229l21.23,21.229
			c5.862,5.862,15.367,5.862,21.229,0C442.315,430.588,442.315,421.084,436.452,415.221z"/>
	</g>
</g>
<g>
	<g>
		<path d="M118.008,96.779L96.778,75.55c-5.862-5.862-15.367-5.862-21.229,0c-5.862,5.863-5.862,15.367,0,21.229l21.23,21.229
			c5.862,5.863,15.367,5.863,21.229,0C123.871,112.146,123.871,102.642,118.008,96.779z"/>
	</g>
</g>
<g>
	<g>
		<path d="M491.886,303.664l-29-7.77c-7.997-2.145-16.24,2.606-18.385,10.614c-2.146,8.008,2.607,16.239,10.615,18.385l29,7.77
			c8.006,2.146,16.239-2.606,18.385-10.615C504.647,314.042,499.894,305.811,491.886,303.664z"/>
	</g>
</g>
<g>
	<g>
		<path d="M56.884,187.107l-29-7.77c-7.996-2.144-16.239,2.606-18.385,10.615c-2.145,8.007,2.608,16.239,10.616,18.384
			c31.837,8.531,30.265,8.285,32.894,8.285c6.627,0,12.694-4.423,14.49-11.13C69.645,197.484,64.892,189.252,56.884,187.107z"/>
	</g>
</g>
<g>
	<g>
		<path d="M332.665,484.116l-7.771-29c-2.147-8.008-10.38-12.762-18.385-10.614c-8.008,2.146-12.761,10.377-10.615,18.385l7.771,29
			c2.147,8.011,10.382,12.761,18.385,10.614C330.059,500.356,334.811,492.125,332.665,484.116z"/>
	</g>
</g>
<g>
	<g>
		<path d="M216.107,49.115l-7.771-29c-2.147-8.008-10.375-12.759-18.386-10.615c-8.008,2.146-12.76,10.377-10.614,18.385
			l7.771,29.001c2.147,8.01,10.379,12.761,18.385,10.614C213.501,65.354,218.252,57.123,216.107,49.115z"/>
	</g>
</g>
<g>
</g>
<g>
</g>
<g>
</g>
<g>
</g>
<g>
</g>
<g>
</g>
<g>
</g>
<g>
</g>
<g>
</g>
<g>
</g>
<g>
</g>
<g>
</g>
<g>
</g>
<g>
</g>
<g>
</g>
</svg>
